<svg width="360" height="94" viewBox="0 0 360 94" fill="none" xmlns="http://www.w3.org/2000/svg">
<path d="M71.944 41.528C73.416 41.528 74.472 41.848 75.112 42.488C75.816 43.128 76.168 43.96 76.168 44.984C76.168 46.648 75.656 48.12 74.632 49.4C73.672 50.68 72.136 51.352 70.024 51.416C64.904 51.544 60.36 51.16 56.392 50.264C51.848 59.8 46.344 67.736 39.88 74.072C33.48 80.344 27.048 83.48 20.584 83.48C13.928 83.48 8.968 79.608 5.704 71.864C2.44 64.12 0.808 53.656 0.808 40.472C0.808 29.208 1.608 19.096 3.208 10.136C3.784 6.80799 4.584 4.568 5.608 3.41599C6.696 2.2 8.52 1.592 11.08 1.592C15.304 1.592 17.416 3.416 17.416 7.064C17.416 7.448 17.352 8.152 17.224 9.17599C15.304 20.696 14.344 31.128 14.344 40.472C14.344 50.264 15.144 57.72 16.744 62.84C18.408 67.896 20.872 70.424 24.136 70.424C27.464 70.424 31.08 68.12 34.984 63.512C38.888 58.904 42.472 53.112 45.736 46.136C41.832 43.704 38.888 40.568 36.904 36.728C34.92 32.824 33.928 28.344 33.928 23.288C33.928 18.232 34.696 13.976 36.232 10.52C37.832 6.99999 39.976 4.376 42.664 2.648C45.416 0.919998 48.456 0.0559978 51.784 0.0559978C55.88 0.0559978 59.112 1.528 61.48 4.472C63.912 7.416 65.128 11.448 65.128 16.568C65.128 23.928 63.528 31.96 60.328 40.664C63.72 41.24 67.592 41.528 71.944 41.528ZM43.624 22.616C43.624 28.888 45.64 33.528 49.672 36.536C52.168 29.368 53.416 23.448 53.416 18.776C53.416 16.088 53.064 14.136 52.36 12.92C51.656 11.64 50.696 11 49.48 11C47.752 11 46.344 12.024 45.256 14.072C44.168 16.056 43.624 18.904 43.624 22.616ZM134.699 65.528C135.659 65.144 136.459 64.952 137.099 64.952C138.123 64.952 138.891 65.336 139.403 66.104C139.915 66.872 140.171 67.864 140.171 69.08C140.171 71 139.691 72.632 138.731 73.976C137.835 75.32 136.267 76.536 134.027 77.624C130.251 79.416 125.355 80.856 119.339 81.944C113.323 82.968 107.403 83.48 101.579 83.48C93.5148 83.48 86.7628 82.584 81.3228 80.792C75.8828 78.936 71.8188 76.408 69.1308 73.208C66.5068 70.008 65.1948 66.392 65.1948 62.36C65.1948 56.856 66.9548 52.184 70.4748 48.344C74.0588 44.44 79.3068 41.624 86.2188 39.896C82.4428 38.808 79.5308 36.888 77.4828 34.136C75.4988 31.384 74.5068 28.312 74.5068 24.92C74.5068 20.312 75.9468 16.248 78.8268 12.728C81.7708 9.144 85.7068 6.392 90.6348 4.472C95.5628 2.552 100.971 1.592 106.859 1.592C114.795 1.592 120.747 3.32 124.715 6.776C128.683 10.168 130.667 14.584 130.667 20.024C130.667 23.8 129.963 26.872 128.555 29.24C127.211 31.544 125.259 32.696 122.699 32.696C120.907 32.696 119.499 32.312 118.475 31.544C117.451 30.712 116.939 29.496 116.939 27.896C116.939 26.808 117.099 25.624 117.419 24.344C117.739 22.232 117.899 20.792 117.899 20.024C117.899 17.72 117.035 15.864 115.307 14.456C113.579 12.984 110.699 12.248 106.667 12.248C101.227 12.248 96.8748 13.4 93.6108 15.704C90.3468 18.008 88.7148 21.112 88.7148 25.016C88.7148 28.024 89.9308 30.52 92.3628 32.504C94.8588 34.424 98.8908 35.48 104.459 35.672C105.867 35.736 106.859 36.056 107.435 36.632C108.011 37.208 108.299 38.168 108.299 39.512C108.299 43.736 106.379 45.88 102.539 45.944C97.2268 46.072 92.8108 46.808 89.2908 48.152C85.8348 49.496 83.3068 51.224 81.7068 53.336C80.1708 55.384 79.4028 57.592 79.4028 59.96C79.4028 63.928 81.2588 66.936 84.9708 68.984C88.6828 70.968 94.5708 71.96 102.635 71.96C107.947 71.96 113.547 71.352 119.435 70.136C125.387 68.856 130.475 67.32 134.699 65.528ZM159.423 83.768C150.911 83.768 144.095 82.168 138.975 78.968C133.855 75.704 131.295 70.744 131.295 64.088C131.295 60.568 131.903 57.88 133.119 56.024C134.335 54.168 136.127 53.24 138.495 53.24C140.223 53.24 141.631 53.688 142.719 54.584C143.807 55.48 144.351 56.632 144.351 58.04C144.351 59.32 144.255 60.44 144.063 61.4C144.063 61.656 143.999 62.104 143.871 62.744C143.807 63.384 143.775 64.056 143.775 64.76C143.775 67.64 145.215 69.784 148.095 71.192C151.039 72.6 155.135 73.304 160.383 73.304C165.823 73.304 170.079 72.344 173.151 70.424C176.223 68.44 177.759 65.688 177.759 62.168C177.759 59.992 177.055 58.136 175.647 56.6C174.239 55 172.479 53.688 170.367 52.664C168.255 51.576 165.279 50.264 161.439 48.728C156.511 46.808 152.479 44.984 149.343 43.256C146.271 41.528 143.615 39.192 141.375 36.248C139.199 33.24 138.111 29.528 138.111 25.112C138.111 20.504 139.327 16.408 141.759 12.824C144.255 9.24 147.807 6.456 152.415 4.472C157.087 2.488 162.559 1.496 168.831 1.496C173.503 1.496 177.791 2.2 181.695 3.608C185.599 4.952 188.703 7.032 191.007 9.848C193.375 12.664 194.559 16.12 194.559 20.216C194.559 24.248 193.951 27.288 192.735 29.336C191.519 31.384 189.727 32.408 187.359 32.408C185.695 32.408 184.287 31.896 183.135 30.872C182.047 29.848 181.503 28.632 181.503 27.224C181.503 26.008 181.599 24.888 181.791 23.864C181.983 21.944 182.079 20.728 182.079 20.216C182.079 17.528 180.767 15.48 178.143 14.072C175.519 12.664 172.255 11.96 168.351 11.96C162.847 11.96 158.623 12.984 155.679 15.032C152.799 17.016 151.359 19.832 151.359 23.48C151.359 25.912 152.095 27.992 153.567 29.72C155.103 31.448 156.991 32.888 159.231 34.04C161.471 35.192 164.607 36.568 168.639 38.168C173.503 40.152 177.407 41.944 180.351 43.544C183.295 45.144 185.791 47.32 187.839 50.072C189.951 52.824 191.007 56.216 191.007 60.248C191.007 67.8 188.127 73.624 182.367 77.72C176.671 81.752 169.023 83.768 159.423 83.768ZM273.602 25.784C273.602 31.224 272.194 36.216 269.378 40.76C266.562 45.304 262.466 49.016 257.09 51.896C251.714 54.776 245.314 56.472 237.89 56.984L233.762 80.12C232.162 89.016 227.81 93.464 220.706 93.464C216.802 93.464 213.186 92.312 209.858 90.008C206.594 87.704 203.97 84.184 201.986 79.448C200.002 74.712 199.01 68.888 199.01 61.976C199.01 48.984 201.09 37.976 205.25 28.952C209.474 19.864 215.106 13.08 222.146 8.6C229.25 4.056 237.058 1.784 245.57 1.784C251.586 1.784 256.674 2.84 260.834 4.952C265.058 7.064 268.226 9.944 270.338 13.592C272.514 17.176 273.602 21.24 273.602 25.784ZM239.618 47.096C252.738 45.432 259.298 38.616 259.298 26.648C259.298 22.424 257.89 19 255.074 16.376C252.322 13.688 248.034 12.344 242.21 12.344C235.618 12.344 229.858 14.424 224.93 18.584C220.066 22.744 216.29 28.536 213.602 35.96C210.978 43.32 209.666 51.736 209.666 61.208C209.666 65.176 210.05 68.696 210.818 71.768C211.65 74.84 212.674 77.24 213.89 78.968C215.17 80.632 216.386 81.464 217.538 81.464C219.138 81.464 220.354 79.256 221.186 74.84L224.354 56.696C221.858 56.312 220.77 56.152 221.09 56.216C219.17 55.896 217.922 55.32 217.346 54.488C216.77 53.592 216.482 52.472 216.482 51.128C216.482 49.72 216.866 48.6 217.634 47.768C218.466 46.936 219.586 46.52 220.994 46.52C221.634 46.52 222.114 46.552 222.434 46.616C223.97 46.872 225.154 47.032 225.986 47.096C226.818 42.104 228.002 35.416 229.538 27.032C229.922 24.856 230.786 23.32 232.13 22.424C233.538 21.464 235.17 20.984 237.026 20.984C239.138 20.984 240.642 21.4 241.538 22.232C242.498 23 242.978 24.248 242.978 25.976C242.978 27 242.914 27.832 242.786 28.472L239.618 47.096ZM300.644 83.48C296.228 83.48 292.228 82.392 288.644 80.216C285.124 78.04 282.34 74.904 280.292 70.808C278.244 66.648 277.22 61.752 277.22 56.12C277.22 46.392 279.3 37.4 283.46 29.144C287.62 20.824 293.764 14.168 301.892 9.17599C310.02 4.12 319.78 1.592 331.172 1.592C334.116 1.592 337.252 1.816 340.58 2.264C343.972 2.712 347.044 3.384 349.796 4.27999C351.588 4.792 352.484 6.072 352.484 8.12C352.484 9.784 351.844 11.352 350.564 12.824C349.348 14.296 347.908 15.032 346.244 15.032C345.732 15.032 345.348 15 345.092 14.936C341.764 14.168 338.916 13.624 336.548 13.304C334.18 12.92 331.684 12.728 329.06 12.728C320.932 12.728 314.02 14.712 308.324 18.68C302.628 22.584 298.372 27.768 295.556 34.232C292.74 40.696 291.332 47.672 291.332 55.16C291.332 60.6 292.388 64.824 294.5 67.832C296.676 70.776 299.492 72.248 302.948 72.248C306.852 72.248 310.276 70.648 313.22 67.448C316.164 64.248 318.852 59.064 321.284 51.896C323.716 44.728 326.116 35 328.484 22.712C328.868 20.92 329.636 19.704 330.788 19.064C331.94 18.424 333.476 18.104 335.396 18.104C339.94 18.104 342.212 19.576 342.212 22.52C342.212 23.032 342.116 23.672 341.924 24.44C340.26 30.648 338.724 37.528 337.316 45.08C335.972 52.568 335.3 58.264 335.3 62.168C335.3 65.624 335.812 68.152 336.836 69.752C337.86 71.288 339.428 72.056 341.54 72.056C343.588 72.056 345.54 71.384 347.396 70.04C349.252 68.632 351.588 66.264 354.404 62.936C355.172 62.04 356.036 61.592 356.996 61.592C357.828 61.592 358.468 61.976 358.916 62.744C359.428 63.512 359.684 64.568 359.684 65.912C359.684 68.408 359.076 70.392 357.86 71.864C354.724 75.64 351.652 78.52 348.644 80.504C345.636 82.488 341.956 83.48 337.604 83.48C333.124 83.48 329.508 82.2 326.756 79.64C324.004 77.016 322.276 73.336 321.572 68.6C316.836 78.52 309.86 83.48 300.644 83.48Z" />
</svg>
